<?xml version="1.0" standalone="no"?>
<!DOCTYPE svg PUBLIC "-//W3C//DTD SVG 20010904//EN"
 "http://www.w3.org/TR/2001/REC-SVG-20010904/DTD/svg10.dtd">
<svg version="1.0" xmlns="http://www.w3.org/2000/svg"
 width="740.000000pt" height="493.000000pt" viewBox="0 0 740.000000 493.000000"
 preserveAspectRatio="xMidYMid meet">

<g transform="translate(0.000000,493.000000) scale(0.100000,-0.100000)"
fill="#000000" stroke="none">
<path d="M3440 3845 c-215 -24 -334 -49 -545 -111 -586 -175 -1279 -611 -1768
-1113 -106 -108 -107 -110 -107 -157 l0 -48 138 -136 c673 -664 1474 -1091
2232 -1191 129 -17 480 -17 610 0 763 98 1561 521 2238 1186 l142 140 0 48 c0
46 -3 50 -82 134 -262 273 -690 606 -1042 808 -608 348 -1248 504 -1816 440z
m593 -210 c588 -90 1182 -380 1782 -869 88 -72 311 -277 318 -293 6 -13 -109
-129 -250 -250 -478 -412 -1029 -723 -1520 -857 -259 -70 -411 -91 -663 -90
-260 0 -418 23 -684 96 -313 86 -702 273 -1039 499 -122 82 -339 248 -457 349
-120 104 -262 241 -258 251 7 17 244 229 378 337 271 219 529 387 805 525 327
163 662 269 965 306 47 6 101 13 120 15 70 9 408 -4 503 -19z"/>
<path d="M3575 3470 c-103 -13 -234 -54 -333 -104 -106 -54 -150 -85 -246
-176 -197 -187 -306 -445 -306 -722 0 -527 382 -949 913 -1009 424 -47 862
211 1026 606 54 129 73 217 78 365 6 155 -13 268 -66 405 -120 311 -403 550
-734 620 -89 19 -244 26 -332 15z m335 -220 c599 -165 802 -918 365 -1355
-159 -159 -351 -239 -575 -238 -366 0 -680 236 -782 588 -20 68 -23 102 -23
230 1 138 3 156 29 230 108 310 349 516 661 565 86 13 238 4 325 -20z"/>
</g>
</svg>
